grf
version=1
nRows=11
nColumns=37
inDegrees=no
endheader
time	ground_force_1_vx	ground_force_1_vy	ground_force_1_vz	ground_force_1_px	ground_force_1_py	ground_force_1_pz	ground_moment_1_mx	ground_moment_1_my	ground_moment_1_mz	ground_force_2_vx	ground_force_2_vy	ground_force_2_vz	ground_force_2_px	ground_force_2_py	ground_force_2_pz	ground_moment_2_mx	ground_moment_2_my	ground_moment_2_mz	ground_force_3_vx	ground_force_3_vy	ground_force_3_vz	ground_force_3_px	ground_force_3_py	ground_force_3_pz	ground_moment_3_mx	ground_moment_3_my	ground_moment_3_mz	ground_force_4_vx	ground_force_4_vy	ground_force_4_vz	ground_force_4_px	ground_force_4_py	ground_force_4_pz	ground_moment_4_mx	ground_moment_4_my	ground_moment_4_mz
      4.27000000	      0.00000000	     -0.00000000	      0.00000000	      0.00000000	      0.00000000	      0.00000000	      0.00000000	      0.00000000	      0.00000000	      2.12770581	      9.19376564	   -371.08645630	   -421.38725950	  -1088.94628102	      0.00000000	      0.00000000	      0.00000000	   8230.62122883	      9.99806098	    -13.19755737	   -404.97048950	   -424.87143951	   -724.00922958	      0.00000000	      0.00000000	     -0.00000000	  -7608.93372898	      0.00000000	     -0.00000000	      0.00000000	      0.00000000	      0.00000000	      0.00000000	      0.00000000	      0.00000000	      0.00000000
      4.28000000	      0.00000000	     -0.00000000	      0.00000000	      0.00000000	      0.00000000	      0.00000000	      0.00000000	      0.00000000	      0.00000000	      1.59231281	      9.40998936	   -372.45492554	   -420.20900901	  -1089.53906235	      0.00000000	      0.00000000	      0.00000000	   8129.67131913	      9.42985708	    -12.88176810	   -402.97317505	   -423.19857418	   -724.26479448	      0.00000000	      0.00000000	     -0.00000000	  -7610.88727110	      0.00000000	     -0.00000000	      0.00000000	      0.00000000	      0.00000000	      0.00000000	      0.00000000	      0.00000000	      0.00000000
      4.29000000	      0.00000000	     -0.00000000	      0.00000000	      0.00000000	      0.00000000	      0.00000000	      0.00000000	      0.00000000	      0.00000000	      0.99184150	     10.63065338	   -376.08267212	   -417.85951643	  -1091.04797250	      0.00000000	      0.00000000	      0.00000000	   8182.76952293	      9.17485891	    -12.51497444	   -404.37039185	   -421.22887835	   -723.38330187	      0.00000000	     -0.00000000	     -0.00000000	  -7602.46225110	      0.00000000	     -0.00000000	      0.00000000	      0.00000000	      0.00000000	      0.00000000	      0.00000000	      0.00000000	      0.00000000
      4.30000000	      0.00000000	     -0.00000000	      0.00000000	      0.00000000	      0.00000000	      0.00000000	      0.00000000	      0.00000000	      0.00000000	      0.14069249	     11.13108730	   -376.23156738	   -417.22906120	  -1090.25936078	      0.00000000	      0.00000000	      0.00000000	   8239.22497235	      8.37640178	    -12.32461621	   -403.27014160	   -419.97879378	   -724.83045783	      0.00000000	      0.00000000	     -0.00000000	  -7663.94527578	      0.00000000	     -0.00000000	      0.00000000	      0.00000000	      0.00000000	      0.00000000	      0.00000000	      0.00000000	      0.00000000
      4.31000000	      0.00000000	     -0.00000000	      0.00000000	      0.00000000	      0.00000000	      0.00000000	      0.00000000	      0.00000000	      0.00000000	     -1.07052612	     12.15936470	   -377.25115967	   -414.84766303	  -1090.11716627	      0.00000000	      0.00000000	      0.00000000	   8474.77427414	      7.40051828	    -12.49071758	   -403.92828369	   -418.51568644	   -724.38161745	      0.00000000	     -0.00000000	     -0.00000000	  -7674.33450695	      0.00000000	     -0.00000000	      0.00000000	      0.00000000	      0.00000000	      0.00000000	      0.00000000	      0.00000000	      0.00000000
      4.32000000	      0.00000000	     -0.00000000	      0.00000000	      0.00000000	      0.00000000	      0.00000000	      0.00000000	      0.00000000	      0.00000000	     -1.84036589	     12.15475941	   -378.96209717	   -413.57812565	  -1091.33342702	      0.00000000	      0.00000000	      0.00000000	   8460.41990940	      6.75183188	    -12.35128080	   -404.90710449	   -416.75956966	   -725.14299948	      0.00000000	      0.00000000	     -0.00000000	  -7833.50136276	      0.00000000	     -0.00000000	      0.00000000	      0.00000000	      0.00000000	      0.00000000	      0.00000000	      0.00000000	      0.00000000
      4.33000000	      0.00000000	     -0.00000000	      0.00000000	      0.00000000	      0.00000000	      0.00000000	      0.00000000	      0.00000000	      0.00000000	     -1.88260388	     12.15922165	   -380.28234863	   -411.52534754	  -1091.36604304	      0.00000000	     -0.00000000	      0.00000000	   8517.33651277	      5.91572938	    -12.58333449	   -404.77651978	   -414.68856991	   -724.61060659	      0.00000000	      0.00000000	     -0.00000000	  -7876.91372017	      0.00000000	     -0.00000000	      0.00000000	      0.00000000	      0.00000000	      0.00000000	      0.00000000	      0.00000000	      0.00000000
      4.34000000	      0.00000000	     -0.00000000	      0.00000000	      0.00000000	      0.00000000	      0.00000000	      0.00000000	      0.00000000	      0.00000000	     -2.31947327	     12.46940613	   -380.20495605	   -410.11662539	  -1091.15986315	      0.00000000	      0.00000000	      0.00000000	   8564.06317636	      4.92131786	    -13.17394490	   -405.38433838	   -412.25781607	   -724.04891144	      0.00000000	      0.00000000	     -0.00000000	  -7884.41311250	      0.00000000	     -0.00000000	      0.00000000	      0.00000000	      0.00000000	      0.00000000	      0.00000000	      0.00000000	      0.00000000
      4.35000000	      0.00000000	     -0.00000000	      0.00000000	      0.00000000	      0.00000000	      0.00000000	      0.00000000	      0.00000000	      0.00000000	     -3.10791373	     13.03594208	   -380.46554565	   -408.70491963	  -1090.67166786	      0.00000000	      0.00000000	      0.00000000	   8514.59948274	      3.90327336	    -13.49905048	   -404.57617188	   -410.60908153	   -724.76007394	      0.00000000	      0.00000000	     -0.00000000	  -7849.36933717	      0.00000000	     -0.00000000	      0.00000000	      0.00000000	      0.00000000	      0.00000000	      0.00000000	      0.00000000	      0.00000000
      4.36000000	      0.00000000	     -0.00000000	      0.00000000	      0.00000000	      0.00000000	      0.00000000	      0.00000000	      0.00000000	      0.00000000	     -4.01447296	     13.42141151	   -378.28796387	   -408.55652022	  -1090.24182340	      0.00000000	      0.00000000	      0.00000000	   8580.49929980	      3.45971941	    -13.69828159	   -404.05822754	   -408.81993916	   -724.83851141	      0.00000000	      0.00000000	     -0.00000000	  -8038.57475613	      0.00000000	     -0.00000000	      0.00000000	      0.00000000	      0.00000000	      0.00000000	      0.00000000	      0.00000000	      0.00000000
      4.37000000	      0.00000000	     -0.00000000	      0.00000000	      0.00000000	      0.00000000	      0.00000000	      0.00000000	      0.00000000	      0.00000000	     -4.02222824	     13.80746365	   -379.69915771	   -406.70307158	  -1090.95697599	      0.00000000	     -0.00000000	      0.00000000	   8714.95283207	      2.64680860	    -13.88899063	   -402.83209229	   -408.00123917	   -724.68957803	      0.00000000	     -0.00000000	     -0.00000000	  -8027.77180833	      0.00000000	     -0.00000000	      0.00000000	      0.00000000	      0.00000000	      0.00000000	      0.00000000	      0.00000000	      0.00000000
